# xmcd CD database file
#
# Track frame offsets:
#	150
#	19494
#	37044
#	54084
#	72899
#	84342
#	102134
#	129332
#	147858
#	169160
#
# Disc length: 2483 seconds
#
# Revision: 1
# Processed by: cddbd v1.5PL3 Copyright (c) Steve Scherf et al.
# Submitted via: CDex 1.50beta9
#
DISCID=7e09b10a
DTITLE=BRIDGE - PREPPY KICKS
DYEAR=1900
DGENRE=Japanese Pop
TTITLE0=SOFT CREAM WHISTLE
TTITLE1=POOL SIDE MUSIC
TTITLE2=St. MANIC SUNDAY
TTITLE3=MAGIC (THEY BELIEVED IN)
TTITLE4=MANIA DE MARMARADE
TTITLE5=THERE'RE SMILE
TTITLE6=MELLOW MOON LIGHT
TTITLE7=TIME SWINGS
TTITLE8=PREPPY LOOK CRACKNELL
TTITLE9=OUR BEAUTIFUL BALLOON
EXTD=
EXTT0=
EXTT1=
EXTT2=
EXTT3=
EXTT4=
EXTT5=
EXTT6=
EXTT7=
EXTT8=
EXTT9=
PLAYORDER=
